<svg width="14" height="18" viewBox="0 0 14 18" fill="none" xmlns="http://www.w3.org/2000/svg">
<path d="M7.00006 12.9374C6.86221 12.9374 6.72437 12.8823 6.61937 12.7726L4.46552 10.5226C4.25498 10.3026 4.25498 9.94715 4.46552 9.72721C4.67606 9.50727 5.01637 9.50727 5.22691 9.72721L7.00006 11.5795L8.77321 9.72721C8.98375 9.50727 9.32406 9.50727 9.5346 9.72721C9.74514 9.94715 9.74514 10.3026 9.5346 10.5226L7.38075 12.7726C7.27575 12.8823 7.13791 12.9374 7.00006 12.9374Z" fill="#087ACC"/>
<path d="M6.99989 12.9375C6.70266 12.9375 6.46143 12.6861 6.46143 12.375V6.75C6.46143 6.4395 6.70266 6.1875 6.99989 6.1875C7.29712 6.1875 7.53835 6.4395 7.53835 6.75V12.375C7.53835 12.6861 7.29712 12.9375 6.99989 12.9375Z" fill="#087ACC"/>
<path d="M10.231 15.1875H3.76942C3.47219 15.1875 3.23096 14.9361 3.23096 14.625C3.23096 14.3139 3.47219 14.0625 3.76942 14.0625H10.231C10.5287 14.0625 10.7694 14.3139 10.7694 14.625C10.7694 14.9361 10.5287 15.1875 10.231 15.1875Z" fill="#087ACC"/>
<path d="M12.6188 18H1.38277C0.620308 18 0 17.3683 0 16.5921V5.03663C0 4.54781 0.190077 4.06913 0.520692 3.72319L3.56354 0.5445C3.89954 0.192937 4.34646 0 4.82138 0H12.6183C13.3802 0 14 0.631125 14 1.40681V16.5932C14 17.3689 13.3808 18 12.6188 18ZM4.82138 1.125C4.634 1.125 4.45792 1.20094 4.32546 1.33931L1.28208 4.51856C1.15177 4.65469 1.07692 4.84369 1.07692 5.03663V16.5921C1.07692 16.7479 1.21423 16.875 1.38277 16.875H12.6183C12.7863 16.875 12.9231 16.7484 12.9231 16.5932V1.40681C12.9231 1.25156 12.7863 1.125 12.6183 1.125H4.82138Z" fill="#087ACC"/>
<path d="M4.0388 5.625H2.15418C1.85695 5.625 1.61572 5.373 1.61572 5.0625C1.61572 4.752 1.85695 4.5 2.15418 4.5H4.0388C4.18742 4.5 4.30803 4.374 4.30803 4.21875V2.25C4.30803 1.9395 4.54926 1.6875 4.84649 1.6875C5.14372 1.6875 5.38495 1.9395 5.38495 2.25V4.21875C5.38495 4.99387 4.7808 5.625 4.0388 5.625Z" fill="#087ACC"/>
</svg>
