<svg width="19" height="13" viewBox="0 0 19 13" fill="none" xmlns="http://www.w3.org/2000/svg">
<path d="M18.4957 5.13158C14.6555 0.665663 11.2052 0 9.5 0C7.79481 0 4.33646 0.665663 0.504294 5.13158C0.179426 5.50873 0 5.99561 0 6.5C0 7.00439 0.179426 7.49127 0.504294 7.86842C4.34446 12.3343 7.79481 13 9.5 13C11.2052 13 14.6635 12.3323 18.4957 7.86842C18.8206 7.49127 19 7.00439 19 6.5C19 5.99561 18.8206 5.50873 18.4957 5.13158ZM17.5981 7.04819C16.3887 8.46607 13.1563 11.7635 9.5 11.7635C5.84375 11.7635 2.61129 8.46607 1.39187 7.04819C1.26148 6.89723 1.18944 6.70214 1.18944 6.5C1.18944 6.29786 1.26148 6.10277 1.39187 5.95181C2.61129 4.53393 5.84375 1.23653 9.5 1.23653C13.1563 1.23653 16.3887 4.53393 17.6081 5.95181C17.7385 6.10277 17.8106 6.29786 17.8106 6.5C17.8106 6.70214 17.7385 6.89723 17.6081 7.04819H17.5981Z" fill="#087ACC"/>
<path d="M9.50011 2.52856C8.73823 2.52856 7.99345 2.76148 7.35997 3.19785C6.72648 3.63422 6.23274 4.25446 5.94118 4.98012C5.64962 5.70578 5.57333 6.50428 5.72197 7.27463C5.87061 8.04499 6.23749 8.75261 6.77622 9.30801C7.31496 9.8634 8.00135 10.2416 8.74859 10.3949C9.49584 10.5481 10.2704 10.4695 10.9743 10.1689C11.6782 9.8683 12.2798 9.35929 12.7031 8.70621C13.1263 8.05313 13.3523 7.28532 13.3523 6.49987C13.3507 5.44712 12.9443 4.43795 12.2222 3.69354C11.5002 2.94913 10.5213 2.5302 9.50011 2.52856ZM9.50011 9.23671C8.97554 9.23671 8.46274 9.07637 8.02654 8.77596C7.59034 8.47555 7.25034 8.04856 7.0495 7.54896C6.84866 7.04937 6.79601 6.4996 6.8982 5.96916C7.0004 5.43872 7.25285 4.95143 7.62364 4.56888C7.99443 4.18633 8.46692 3.9257 8.98136 3.81995C9.49581 3.7142 10.0291 3.76806 10.5139 3.97473C10.9986 4.18141 11.4131 4.53161 11.7048 4.98107C11.9965 5.43053 12.1525 5.95907 12.1528 6.49987C12.1518 7.22484 11.872 7.91981 11.3747 8.43245C10.8775 8.94508 10.2033 9.23356 9.50011 9.23465V9.23671Z" fill="#087ACC"/>
</svg>
