<svg width="16" height="16" viewBox="0 0 16 16" fill="none" xmlns="http://www.w3.org/2000/svg">
<path fill-rule="evenodd" clip-rule="evenodd" d="M3.55544 14.6518C4.87103 15.5308 6.41775 16 8 16C10.121 15.9977 12.1545 15.1541 13.6543 13.6543C15.1541 12.1545 15.9977 10.121 16 8C16 6.41775 15.5308 4.87103 14.6518 3.55544C13.7727 2.23985 12.5233 1.21447 11.0615 0.608967C9.59966 0.00346629 7.99113 -0.15496 6.43928 0.153721C4.88743 0.462403 3.46197 1.22433 2.34315 2.34315C1.22433 3.46197 0.462403 4.88743 0.153721 6.43928C-0.15496 7.99113 0.00346629 9.59966 0.608967 11.0615C1.21447 12.5233 2.23985 13.7727 3.55544 14.6518ZM4.2962 2.45687C5.39253 1.72433 6.68146 1.33334 8 1.33334C9.76752 1.33528 11.4621 2.03828 12.7119 3.2881C13.9617 4.53792 14.6647 6.23249 14.6667 8C14.6667 9.31854 14.2757 10.6075 13.5431 11.7038C12.8106 12.8001 11.7694 13.6546 10.5512 14.1592C9.33305 14.6638 7.99261 14.7958 6.6994 14.5386C5.40619 14.2813 4.21831 13.6464 3.28596 12.714C2.35361 11.7817 1.71867 10.5938 1.46143 9.3006C1.2042 8.0074 1.33622 6.66695 1.84081 5.44878C2.34539 4.23061 3.19987 3.18941 4.2962 2.45687ZM7.34007 5.4412C7.4894 5.58342 7.72407 5.65453 8.04407 5.65453C8.36407 5.65453 8.59518 5.58342 8.7374 5.4412C8.88674 5.29186 8.9614 5.10342 8.9614 4.87586V4.6412C8.9614 4.41364 8.88674 4.22875 8.7374 4.08653C8.59518 3.9372 8.36407 3.86253 8.04407 3.86253C7.72407 3.86253 7.4894 3.9372 7.34007 4.08653C7.19785 4.22875 7.12674 4.41364 7.12674 4.6412V4.87586C7.12674 5.10342 7.19785 5.29186 7.34007 5.4412ZM8.8334 11.8519V6.25186H7.25474V11.8519H8.8334Z" fill="#989898"/>
</svg>
