<svg width="27" height="27" viewBox="0 0 27 27" fill="none" xmlns="http://www.w3.org/2000/svg">
<path d="M13.5094 14.4001C12.4414 14.4001 11.3973 14.0834 10.5093 13.49C9.62127 12.8967 8.92914 12.0533 8.52043 11.0666C8.11171 10.0799 8.00478 8.99411 8.21314 7.94661C8.4215 6.89911 8.9358 5.93693 9.691 5.18172C10.4462 4.42652 11.4084 3.91222 12.4559 3.70386C13.5034 3.4955 14.5891 3.60244 15.5759 4.01115C16.5626 4.41986 17.4059 5.11199 17.9993 6.00002C18.5927 6.88804 18.9094 7.93208 18.9094 9.0001C18.9094 10.4323 18.3404 11.8058 17.3278 12.8185C16.3151 13.8312 14.9415 14.4001 13.5094 14.4001ZM13.5094 5.4001C12.7974 5.4001 12.1013 5.61124 11.5093 6.00681C10.9173 6.40238 10.4559 6.96462 10.1834 7.62244C9.91093 8.28025 9.83964 9.00409 9.97855 9.70242C10.1175 10.4008 10.4603 11.0422 10.9638 11.5457C11.4673 12.0491 12.1087 12.392 12.8071 12.5309C13.5054 12.6698 14.2292 12.5985 14.887 12.3261C15.5448 12.0536 16.1071 11.5922 16.5027 11.0001C16.8982 10.4081 17.1094 9.71211 17.1094 9.0001C17.1094 8.04532 16.7301 7.12964 16.055 6.45451C15.3798 5.77938 14.4642 5.4001 13.5094 5.4001Z" fill="white"/>
<path d="M13.5089 27.0001C11.5131 26.9988 9.54238 26.555 7.73869 25.7006C5.93501 24.8462 4.3432 23.6025 3.07786 22.0591L2.60986 21.4831L3.07786 20.9161C4.34427 19.3747 5.93655 18.1331 7.74017 17.2807C9.5438 16.4282 11.5139 15.9861 13.5089 15.9861C15.5038 15.9861 17.4739 16.4282 19.2775 17.2807C21.0812 18.1331 22.6735 19.3747 23.9399 20.9161L24.4079 21.4831L23.9399 22.0591C22.6745 23.6025 21.0827 24.8462 19.279 25.7006C17.4753 26.555 15.5047 26.9988 13.5089 27.0001ZM4.96786 21.4921C6.06247 22.6639 7.38628 23.5982 8.85709 24.237C10.3279 24.8758 11.9143 25.2054 13.5179 25.2054C15.1214 25.2054 16.7078 24.8758 18.1786 24.237C19.6494 23.5982 20.9732 22.6639 22.0679 21.4921C20.9732 20.3203 19.6494 19.386 18.1786 18.7472C16.7078 18.1085 15.1214 17.7788 13.5179 17.7788C11.9143 17.7788 10.3279 18.1085 8.85709 18.7472C7.38628 19.386 6.06247 20.3203 4.96786 21.4921Z" fill="white"/>
<path d="M13.509 27C10.4425 27.002 7.46662 25.96 5.07123 24.0454C2.67584 22.1308 1.00365 19.4577 0.329893 16.4661C-0.343864 13.4745 0.020958 10.3427 1.36431 7.58606C2.70767 4.82943 4.94951 2.61229 7.72085 1.29955C10.4922 -0.0131888 13.6279 -0.343299 16.6118 0.363553C19.5958 1.0704 22.2502 2.7721 24.1381 5.18855C26.0261 7.605 27.0351 10.5922 26.9991 13.6585C26.9631 16.7249 25.8842 19.6875 23.94 22.059C22.6747 23.6024 21.0829 24.8461 19.2792 25.7005C17.4755 26.5548 15.5048 26.9987 13.509 27ZM13.509 1.80001C11.195 1.80001 8.93289 2.4862 7.00884 3.77181C5.08478 5.05743 3.58517 6.88471 2.69962 9.02261C1.81408 11.1605 1.58238 13.513 2.03382 15.7826C2.48527 18.0521 3.59959 20.1369 5.23586 21.7731C6.87214 23.4094 8.95687 24.5237 11.2265 24.9752C13.496 25.4266 15.8485 25.1949 17.9864 24.3094C20.1243 23.4238 21.9516 21.9242 23.2372 20.0002C24.5228 18.0761 25.209 15.814 25.209 13.5C25.209 10.397 23.9763 7.42103 21.7822 5.22686C19.588 3.03268 16.612 1.80001 13.509 1.80001Z" fill="white"/>
</svg>
