<svg width="18" height="19" viewBox="0 0 18 19" fill="none" xmlns="http://www.w3.org/2000/svg">
<path d="M9.00001 0.500244C4.06018 0.500244 0.040318 4.52011 0.000319331 9.43994C-0.01968 11.8399 0.900289 14.1198 2.60023 15.8197C4.28017 17.5397 6.5401 18.4796 8.94001 18.4996H9.00001C13.9398 18.4996 17.9597 14.4798 17.9997 9.55993C18.0397 4.6001 14.0198 0.540243 9.00001 0.500244ZM9.00001 17.2797H8.94001C6.86009 17.2597 4.92015 16.4397 3.4402 14.9597C2.00025 13.4998 1.20028 11.5399 1.22028 9.45994C1.24028 5.20008 4.74016 1.7202 9.06001 1.7202C13.3599 1.7402 16.8197 5.26008 16.7997 9.55993C16.7597 13.8198 13.2599 17.2797 9.00001 17.2797Z" fill="#087ACC"/>
<path d="M13.0798 5.62002C13.0798 5.30003 12.8198 5.04004 12.4999 5.04004H8.14H6.16007H6.14007C5.82008 5.04004 5.56009 5.30003 5.56009 5.62002C5.56009 5.94001 5.82008 6.2 6.14007 6.2H6.16007H8.14C9.07997 6.2 9.87995 6.81998 10.1399 7.65995H6.12007C5.80008 7.65995 5.54009 7.91994 5.54009 8.23993C5.54009 8.55992 5.80008 8.81991 6.12007 8.81991H10.1999C9.97994 9.73988 9.13997 10.4199 8.16 10.4199H6.06008C5.82008 10.4199 5.62009 10.5599 5.52009 10.7598C5.4201 10.9798 5.4601 11.2198 5.62009 11.3798L8.99998 15.0197C9.11997 15.1397 9.25997 15.1997 9.41996 15.1997C9.55996 15.1997 9.69995 15.1397 9.81995 15.0397C10.0599 14.8197 10.0599 14.4597 9.85995 14.2197L7.40003 11.5798H8.14C9.77995 11.5798 11.1199 10.3799 11.3799 8.81991H12.4999C12.8198 8.81991 13.0798 8.55992 13.0798 8.23993C13.0798 7.91994 12.8198 7.65995 12.4999 7.65995H11.3599C11.2399 7.11997 10.9999 6.61998 10.6399 6.2H12.4999C12.8198 6.2 13.0798 5.94001 13.0798 5.62002Z" fill="#087ACC"/>
</svg>
