<svg width="14" height="14" viewBox="0 0 14 14" fill="none" xmlns="http://www.w3.org/2000/svg">
<path fill-rule="evenodd" clip-rule="evenodd" d="M3.11101 12.8203C4.26215 13.5895 5.61553 14 7 14C8.8559 13.998 10.6352 13.2599 11.9475 11.9475C13.2599 10.6352 13.998 8.8559 14 7C14 5.61553 13.5895 4.26215 12.8203 3.11101C12.0511 1.95987 10.9579 1.06266 9.67879 0.532846C8.3997 0.003033 6.99224 -0.13559 5.63437 0.134506C4.2765 0.404603 3.02922 1.07129 2.05026 2.05026C1.07129 3.02922 0.404603 4.2765 0.134506 5.63437C-0.13559 6.99224 0.003033 8.3997 0.532846 9.67879C1.06266 10.9579 1.95987 12.0511 3.11101 12.8203ZM3.75918 2.14976C4.71846 1.50879 5.84628 1.16667 7 1.16667C8.54658 1.16837 10.0293 1.78349 11.1229 2.87709C12.2165 3.97068 12.8316 5.45343 12.8333 7C12.8333 8.15373 12.4912 9.28154 11.8502 10.2408C11.2093 11.2001 10.2982 11.9478 9.23232 12.3893C8.16642 12.8308 6.99353 12.9463 5.86198 12.7212C4.73042 12.4962 3.69102 11.9406 2.87521 11.1248C2.05941 10.309 1.50384 9.26958 1.27876 8.13803C1.05368 7.00647 1.16919 5.83358 1.61071 4.76768C2.05222 3.70178 2.79989 2.79074 3.75918 2.14976ZM5.51112 9.79568C5.62399 9.90147 5.77426 9.95809 5.92888 9.95309C6.08341 9.94818 6.22968 9.88212 6.33553 9.76943L10.8479 4.95342C10.9538 4.84046 11.0104 4.69008 11.0053 4.53536C11.0003 4.38065 10.934 4.23427 10.8211 4.12844C10.7081 4.0226 10.5577 3.96597 10.403 3.971C10.2483 3.97604 10.1019 4.04233 9.99608 4.15529L5.88305 8.54508L3.90126 6.68824C3.78838 6.5824 3.63807 6.52574 3.48341 6.53071C3.32875 6.53569 3.1824 6.60191 3.07656 6.71479C2.97072 6.82767 2.91406 6.97798 2.91904 7.13264C2.92402 7.2873 2.99023 7.43365 3.10311 7.53949L5.51112 9.79568Z" fill="white"/>
</svg>
