<svg width="17" height="17" viewBox="0 0 17 17" fill="none" xmlns="http://www.w3.org/2000/svg">
<path fill-rule="evenodd" clip-rule="evenodd" d="M3.77766 15.5675C5.17547 16.5015 6.81886 17 8.5 17C10.7536 16.9976 12.9142 16.1012 14.5077 14.5077C16.1012 12.9142 16.9976 10.7536 17 8.5C17 6.81886 16.5015 5.17547 15.5675 3.77766C14.6335 2.37984 13.306 1.29037 11.7528 0.647028C10.1996 0.00368293 8.49057 -0.164645 6.84174 0.163329C5.1929 0.491303 3.67834 1.30085 2.4896 2.4896C1.30085 3.67834 0.491303 5.1929 0.163329 6.84174C-0.164645 8.49057 0.00368293 10.1996 0.647028 11.7528C1.29037 13.306 2.37984 14.6335 3.77766 15.5675ZM4.56471 2.61043C5.72956 1.8321 7.09905 1.41667 8.5 1.41667C10.378 1.41873 12.1785 2.16567 13.5064 3.49361C14.8343 4.82154 15.5813 6.62202 15.5833 8.5C15.5833 9.90095 15.1679 11.2704 14.3896 12.4353C13.6113 13.6001 12.505 14.508 11.2107 15.0441C9.91637 15.5803 8.49214 15.7205 7.11811 15.4472C5.74408 15.1739 4.48195 14.4993 3.49133 13.5087C2.50071 12.5181 1.82609 11.2559 1.55277 9.88189C1.27946 8.50786 1.41974 7.08364 1.95586 5.78933C2.49198 4.49502 3.39987 3.38875 4.56471 2.61043ZM6.69207 11.8947C6.82913 12.0232 7.0116 12.092 7.19935 12.0859C7.387 12.0799 7.56461 11.9997 7.69315 11.8629L13.1725 6.01486C13.301 5.87769 13.3697 5.69509 13.3636 5.50723C13.3575 5.31936 13.277 5.14162 13.1399 5.0131C13.0027 4.88458 12.8201 4.81582 12.6322 4.82193C12.4444 4.82805 12.2666 4.90854 12.1381 5.04571L7.1437 10.3762L4.73724 8.12143C4.60017 7.99291 4.41766 7.92411 4.22986 7.93015C4.04205 7.9362 3.86435 8.0166 3.73583 8.15367C3.6073 8.29074 3.5385 8.47326 3.54455 8.66106C3.55059 8.84886 3.63099 9.02657 3.76807 9.15509L6.69207 11.8947Z" fill="#27AE60"/>
</svg>
